<svg xmlns="http://www.w3.org/2000/svg" width="49.499" height="42.353" viewBox="0 0 49.499 42.353">
  <g id="Grupo_108435" data-name="Grupo 108435" transform="translate(11033.756 12016.26)">
    <path id="Trazado_99257" data-name="Trazado 99257" d="M416.819,104.024a1.3,1.3,0,1,1-1.3-1.245A1.275,1.275,0,0,1,416.819,104.024Z" transform="translate(-11447.97 -12119.039)" fill="#fff"/>
    <path id="Trazado_99258" data-name="Trazado 99258" d="M425.265,104.024a1.3,1.3,0,1,1-1.3-1.245A1.275,1.275,0,0,1,425.265,104.024Z" transform="translate(-11444.693 -12119.039)" fill="#fff"/>
    <path id="Trazado_99259" data-name="Trazado 99259" d="M433.711,104.024a1.3,1.3,0,1,1-1.3-1.245A1.275,1.275,0,0,1,433.711,104.024Z" transform="translate(-11441.415 -12119.039)" fill="#fff"/>
    <path id="Trazado_99260" data-name="Trazado 99260" d="M442.158,104.024a1.3,1.3,0,1,1-1.3-1.245A1.275,1.275,0,0,1,442.158,104.024Z" transform="translate(-11438.139 -12119.039)" fill="#fff"/>
    <path id="Trazado_99261" data-name="Trazado 99261" d="M450.6,104.024a1.3,1.3,0,1,1-1.3-1.245A1.275,1.275,0,0,1,450.6,104.024Z" transform="translate(-11434.861 -12119.039)" fill="#fff"/>
    <ellipse id="Elipse_3975" data-name="Elipse 3975" cx="1.303" cy="1.246" rx="1.303" ry="1.246" transform="translate(-11033.756 -12006.294)" fill="#fff"/>
    <path id="Trazado_99268" data-name="Trazado 99268" d="M425.265,111.532a1.3,1.3,0,1,1-1.3-1.245A1.276,1.276,0,0,1,425.265,111.532Z" transform="translate(-11444.693 -12116.581)" fill="#fff"/>
    <ellipse id="Elipse_3976" data-name="Elipse 3976" cx="1.303" cy="1.246" rx="1.303" ry="1.246" transform="translate(-11010.31 -12006.294)" fill="#fff"/>
    <path id="Trazado_99269" data-name="Trazado 99269" d="M442.158,111.532a1.3,1.3,0,1,1-1.3-1.245A1.276,1.276,0,0,1,442.158,111.532Z" transform="translate(-11438.139 -12116.581)" fill="#fff"/>
    <path id="Trazado_99270" data-name="Trazado 99270" d="M450.6,111.532a1.3,1.3,0,1,1-1.3-1.245A1.276,1.276,0,0,1,450.6,111.532Z" transform="translate(-11434.861 -12116.581)" fill="#fff"/>
    <path id="Trazado_99274" data-name="Trazado 99274" d="M416.819,119.04a1.3,1.3,0,1,1-1.3-1.246A1.276,1.276,0,0,1,416.819,119.04Z" transform="translate(-11447.97 -12114.124)" fill="#fff"/>
    <path id="Trazado_99275" data-name="Trazado 99275" d="M425.265,119.04a1.3,1.3,0,1,1-1.3-1.246A1.276,1.276,0,0,1,425.265,119.04Z" transform="translate(-11444.693 -12114.124)" fill="#fff"/>
    <path id="Trazado_99276" data-name="Trazado 99276" d="M433.711,119.04a1.3,1.3,0,1,1-1.3-1.246A1.276,1.276,0,0,1,433.711,119.04Z" transform="translate(-11441.415 -12114.124)" fill="#fff"/>
    <path id="Trazado_99277" data-name="Trazado 99277" d="M442.158,119.04a1.3,1.3,0,1,1-1.3-1.246A1.276,1.276,0,0,1,442.158,119.04Z" transform="translate(-11438.139 -12114.124)" fill="#fff"/>
    <path id="Trazado_99278" data-name="Trazado 99278" d="M450.6,119.04a1.3,1.3,0,1,1-1.3-1.246A1.276,1.276,0,0,1,450.6,119.04Z" transform="translate(-11434.861 -12114.124)" fill="#fff"/>
    <ellipse id="Elipse_3980" data-name="Elipse 3980" cx="1.303" cy="1.246" rx="1.303" ry="1.246" transform="translate(-11033.756 -11986.362)" fill="#fff"/>
    <path id="Trazado_99285" data-name="Trazado 99285" d="M425.265,126.548a1.3,1.3,0,1,1-1.3-1.246A1.275,1.275,0,0,1,425.265,126.548Z" transform="translate(-11444.693 -12111.665)" fill="#fff"/>
    <ellipse id="Elipse_3981" data-name="Elipse 3981" cx="1.303" cy="1.246" rx="1.303" ry="1.246" transform="translate(-11010.31 -11986.362)" fill="#fff"/>
    <path id="Trazado_99286" data-name="Trazado 99286" d="M442.158,126.548a1.3,1.3,0,1,1-1.3-1.246A1.275,1.275,0,0,1,442.158,126.548Z" transform="translate(-11438.139 -12111.665)" fill="#fff"/>
    <path id="Trazado_99287" data-name="Trazado 99287" d="M450.6,126.548a1.3,1.3,0,1,1-1.3-1.246A1.275,1.275,0,0,1,450.6,126.548Z" transform="translate(-11434.861 -12111.665)" fill="#fff"/>
    <ellipse id="Elipse_3985" data-name="Elipse 3985" cx="1.303" cy="1.246" rx="1.303" ry="1.246" transform="translate(-11033.756 -11976.398)" fill="#fff"/>
    <path id="Trazado_99291" data-name="Trazado 99291" d="M425.265,134.056a1.3,1.3,0,1,1-1.3-1.246A1.274,1.274,0,0,1,425.265,134.056Z" transform="translate(-11444.693 -12109.208)" fill="#fff"/>
    <ellipse id="Elipse_3986" data-name="Elipse 3986" cx="1.303" cy="1.246" rx="1.303" ry="1.246" transform="translate(-11010.31 -11976.398)" fill="#fff"/>
    <path id="Trazado_99292" data-name="Trazado 99292" d="M442.158,134.056a1.3,1.3,0,1,1-1.3-1.246A1.275,1.275,0,0,1,442.158,134.056Z" transform="translate(-11438.139 -12109.208)" fill="#fff"/>
    <path id="Trazado_99293" data-name="Trazado 99293" d="M450.6,134.056a1.3,1.3,0,1,1-1.3-1.246A1.275,1.275,0,0,1,450.6,134.056Z" transform="translate(-11434.861 -12109.208)" fill="#fff"/>
  </g>
</svg>
